<svg width="128" height="128" viewBox="0 0 128 128" fill="none" xmlns="http://www.w3.org/2000/svg">
<rect width="128" height="128" rx="12" fill="#00502F"/>
<path d="M83.2026 112C82.2931 112 81.4981 111.386 81.2678 110.506L57.1919 18.5063C56.8602 17.2388 57.8166 16 59.1268 16L73.6781 16C74.5896 16 75.3859 16.6164 75.6143 17.4988L91.476 78.7767C92.0683 81.0646 95.4412 80.614 95.4121 78.2509L94.6697 18.0246C94.656 16.9105 95.5554 16 96.6696 16L110 16C111.105 16 112 16.8954 112 18V110C112 111.105 111.105 112 110 112H83.2026Z" fill="#61FF96"/>
<path d="M18 112C16.8954 112 16 111.105 16 110L16 18C16 16.8954 16.8954 16 18 16H46.4832C47.3989 16 48.1977 16.6219 48.4222 17.5097L71.6839 109.51C72.0034 110.773 71.0483 112 69.7449 112H55.913C54.9953 112 54.1953 111.375 53.9727 110.485L50.361 96.038C50.1385 95.1477 49.3385 94.5231 48.4207 94.5231H35.4766C34.372 94.5231 33.4766 95.4185 33.4766 96.5231V110C33.4766 111.105 32.5812 112 31.4766 112H18ZM34.8321 34.2154C34.0835 34.2154 33.4766 34.8223 33.4766 35.5709V75.2308C33.4766 76.3353 34.372 77.2308 35.4766 77.2308H43.5692C44.8602 77.2308 45.813 76.0258 45.5153 74.7695L36.1511 35.2583C36.0062 34.647 35.4603 34.2154 34.8321 34.2154V34.2154Z" fill="#61FF96"/>
</svg>
